# xmcd
#
# Track frame offsets: 
#        182
#        11065
#        21527
#        33840
#        44360
#        54192
#        63727
#        76047
#        87095
#        98190
#        110237
#        120892
#        131890
#        143425
#        154685
#        165935
#        177780
#        187900
#        198622
#        207750
#        218855
#        231580
#
# Disc length: 3200 seconds
#
# Revision: 4
# Processed by: cddbd v1.5.2PL0 Copyright (c) Steve Scherf et al.
# Submitted via: ExactAudioCopyFreeDBPlugin 1.0
#
DISCID=260c7e16
DTITLE=Buck Owens - The Story 1956-1964, vol1
DYEAR=1994
DGENRE=Country
TTITLE0=Down On The Corner Of Love (1956)
TTITLE1=It Don't Show On Me (1956)
TTITLE2=The House Down The Block (1956)
TTITLE3=Right After The Dance (1956)
TTITLE4=I Know What It Means (1957)
TTITLE5=Second Fiddle (1959)
TTITLE6=Under Your Spell Again (1959)
TTITLE7=Above And Beyond (1960)
TTITLE8=Excuse Me (1960)
TTITLE9=Foolin' Around (1961)
TTITLE10=Under The Influence Of Love (1961)
TTITLE11=Mental Cruelty (1961)
TTITLE12=Loose Talk (1961)
TTITLE13=Nobody's Fool But Yours (1962)
TTITLE14=Save The Last Dance Dance For Me (1962)
TTITLE15=Kickin' Our Hearts Around (1962)
TTITLE16=You're For Me (1962)
TTITLE17=Act Naturally (1963)
TTITLE18=Love's Gonna Live Here (1963)
TTITLE19=My Heart Skips A Beat (1964)
TTITLE20=Close Up The Honky Tonks (1964)
TTITLE21=Hello Trouble (1964)
EXTD=
EXTT0=
EXTT1=
EXTT2=
EXTT3=
EXTT4=
EXTT5=
EXTT6=
EXTT7=
EXTT8=
EXTT9=
EXTT10=
EXTT11=
EXTT12=
EXTT13=
EXTT14=
EXTT15=
EXTT16=
EXTT17=
EXTT18=
EXTT19=
EXTT20=
EXTT21=
PLAYORDER=
